<?xml version="1.0" encoding="UTF-8"?>
<svg width="74px" height="74px" viewBox="0 0 74 74" version="1.1" xmlns="http://www.w3.org/2000/svg" xmlns:xlink="http://www.w3.org/1999/xlink">
    <!-- Generator: Sketch 51.2 (57519) - http://www.bohemiancoding.com/sketch -->
    <title>2. Illustration / 4. Service Icons / Desktop and mobile</title>
    <desc>Created with Sketch.</desc>
    <defs></defs>
    <g id="2.-Illustration-/-4.-Service-Icons-/-Desktop-and-mobile" stroke="none" stroke-width="1" fill="none" fill-rule="evenodd">
        <g id="desktop-pc-and-a-mobile" transform="translate(4.000000, 9.000000)">
            <g id="Group">
                <path d="M65.15,14.726 C65.15,12.001 62.62,9.771 59.895,9.771 L56.34,9.771 L56.34,5.366 C56.34,2.943 54.057,0.961 51.635,0.961 L4.286,0.961 C1.863,0.961 0.181,2.943 0.181,5.366 L0.181,36.199 C0.181,38.621 1.863,40.604 4.285,40.604 L23.005,40.604 C23.005,44.8610109 19.5540109,48.312 15.297,48.312 L38.722,48.312 L38.722,51.065 C38.722,53.79 40.652,56.02 43.377,56.02 L59.895,56.02 C62.62,56.02 65.15,53.79 65.15,51.065" id="Shape" fill="#FFFFFF" fill-rule="nonzero"></path>
                <path d="M55.08,10.062 L44.503,10.104 C44.521,10.104 44.54,10.194 44.558,10.194 L56.155,10.194 C55.803252,10.1089296 55.4428794,10.064638 55.081,10.062" id="Shape" fill-opacity="0.08" fill="#2F4662" fill-rule="nonzero"></path>
                <polygon id="Shape" fill="#CCE0EA" fill-rule="nonzero" points="22.837 40.842 34.01 40.842 34.01 44.566 22.837 44.566"></polygon>
                <path d="M64.763,41.764 L64.763,50.928 C64.763,53.616 62.563,55.816 59.875,55.816 L43.58,55.816 C40.8836238,55.8083101 38.6996899,53.6243762 38.692,50.928 L38.692,15.082 C38.692,12.394 40.892,10.194 43.58,10.194 L59.874,10.194 C62.562,10.194 64.762,12.394 64.762,15.082 L64.762,21.7" id="Shape" stroke="#2F4564" stroke-width="2"></path>
                <path d="M55.114,10.194 L55.114,4.83996789 L35.65,4.84 C34.5888328,4.83574666 33.5696406,5.25417808 32.8175892,6.00285201 C32.0655378,6.75152593 31.6425231,7.76882439 31.642,8.83 L31.642,40.84 L38.692,40.84 L38.692,15.083 C38.692,12.395 40.892,10.195 43.58,10.195 L55.113,10.195 L55.114,10.194 Z" id="Shape" fill="#E5EFF4" fill-rule="nonzero"></path>
                <path d="M64.763,41.764 L64.763,50.928 C64.763,53.616 62.563,55.816 59.875,55.816 L43.58,55.816 C40.8836238,55.8083101 38.6996899,53.6243762 38.692,50.928 L38.692,15.082 C38.692,12.394 40.892,10.194 43.58,10.194 L59.874,10.194 C62.562,10.194 64.762,12.394 64.762,15.082 L64.762,41.764 L64.763,41.764 Z" id="Shape" stroke="#2F4662" stroke-width="2"></path>
                <path d="M53.357,51.743 C53.3568214,51.1606571 53.0459801,50.6226453 52.541567,50.3316285 C52.0371539,50.0406118 51.4158014,50.0408024 50.911567,50.3321285 C50.4073325,50.6234547 50.0968213,51.1616571 50.097,51.744 C50.0972762,52.6442241 50.8272759,53.3737761 51.7275,53.3734999 C52.6277241,53.3732238 53.3572761,52.6432241 53.357,51.743" id="Shape" fill="#2F4662" fill-rule="nonzero"></path>
                <path d="M38.693,48.25 L64.763,48.25 M48.47,13.996 L54.987,13.996" id="Shape" stroke="#2F4662" stroke-width="1.5"></path>
                <path d="M38.693,40.609 L5.02,40.609 C2.623286,40.6018612 0.682138845,38.660714 0.675,36.264 L0.675,5.849 C0.682138845,3.452286 2.623286,1.51113885 5.02,1.504 L51.728,1.504 C54.124714,1.51113885 56.0658612,3.452286 56.073,5.849 L56.073,10.194" id="Shape" stroke="#2F4662" stroke-width="2"></path>
                <path d="M1.568,32.5 L37.76,32.5 M15.882,48.213 C20.082,48.213 23.486,44.808 23.486,40.609 M33.262,40.609 C33.262,44.809 36.666,48.213 40.866,48.213" id="Shape" stroke="#2F4662" stroke-width="1.5"></path>
                <path d="M15.092,48.25 L42.248,48.25" id="Shape" stroke="#2F4662" stroke-width="1.5" stroke-linecap="round"></path>
                <path d="M51.998,22.52 C47.1986455,22.52 43.308,26.4106455 43.308,31.21 C43.308,36.0093545 47.1986455,39.9 51.998,39.9 C56.7973545,39.9 60.688,36.0093545 60.688,31.21 C60.688,26.4106455 56.7973545,22.52 51.998,22.52 Z" id="Shape" stroke="#735996" stroke-width="1.5" stroke-linecap="round" stroke-linejoin="round"></path>
                <polyline id="Shape" stroke="#735996" stroke-width="1.5" stroke-linecap="round" stroke-linejoin="round" points="48.804 31.08 51.02 33.296 55.192 29.124"></polyline>
            </g>
        </g>
    </g>
</svg>