<svg fill="none" xmlns="http://www.w3.org/2000/svg" viewBox="0 0 300 300"><g opacity=".25" fill-rule="evenodd" clip-rule="evenodd" fill="#FAF9F9"><path d="M3.97 124.86a2 2 0 01-1.98 2 2 2 0 01-1.99-2 2 2 0 011.99-2 2 2 0 011.98 2zM30.88 124.86a2 2 0 01-1.98 2 2 2 0 01-1.99-2 2 2 0 011.99-2 2 2 0 011.98 2zM57.8 124.86a2 2 0 01-1.99 2 2 2 0 01-1.99-2 2 2 0 011.99-2 2 2 0 011.99 2zM84.7 124.86a2 2 0 01-1.98 2 2 2 0 01-1.99-2 2 2 0 012-2 2 2 0 011.98 2zM111.62 124.86a2 2 0 01-1.99 2 2 2 0 01-1.98-2 2 2 0 011.98-2 2 2 0 011.99 2zM3.97 149.6a2 2 0 01-1.98 2 2 2 0 01-1.99-2 2 2 0 113.97 0zM30.88 149.6a2 2 0 01-1.98 2 2 2 0 01-1.99-2 2 2 0 113.97 0zM57.8 149.6a2 2 0 01-1.99 2 2 2 0 01-1.99-2 2 2 0 113.97 0zM84.7 149.6a2 2 0 01-1.98 2 2 2 0 01-1.99-2 1.99 1.99 0 113.97 0zM111.62 149.6a2 2 0 01-1.99 2 2 2 0 01-1.98-2 2 2 0 113.97 0zM3.97 174.33a2 2 0 01-1.98 2 2 2 0 01-1.99-2 2 2 0 011.99-2 2 2 0 011.98 2zM30.88 174.33a2 2 0 01-1.98 2 2 2 0 01-1.99-2 2 2 0 011.99-2 2 2 0 011.98 2zM84.7 174.33a2 2 0 01-1.98 2 2 2 0 01-1.99-2 2 2 0 012-2 2 2 0 011.98 2zM111.62 174.33a2 2 0 01-1.99 2 2 2 0 01-1.98-2 2 2 0 011.98-2 2 2 0 011.99 2zM138.53 174.33a2 2 0 01-1.99 2 2 2 0 01-1.98-2 2 2 0 011.98-2 2 2 0 012 2zM138.53 150.05a2 2 0 01-1.99 2 2 2 0 01-1.98-2 2 2 0 011.98-2 2 2 0 012 2zM138.53 125.07a2 2 0 01-1.99 2 2 2 0 01-1.98-2 2 2 0 011.98-2 2 2 0 012 2zM165.44 174.33a2 2 0 01-1.98 2 2 2 0 01-1.99-2 2 2 0 011.99-2 2 2 0 011.98 2zM165.44 150.05a2 2 0 01-1.98 2 2 2 0 01-1.99-2 2 2 0 011.99-2 2 2 0 011.98 2zM165.44 125.07a2 2 0 01-1.98 2 2 2 0 01-1.99-2 2 2 0 011.99-2 2 2 0 011.98 2zM192.35 174.33a2 2 0 01-1.98 2 2 2 0 01-1.99-2 2 2 0 011.99-2 2 2 0 011.98 2zM192.35 150.05a2 2 0 01-1.98 2 2 2 0 01-1.99-2 2 2 0 011.99-2 2 2 0 011.98 2zM192.35 125.07a2 2 0 01-1.98 2 2 2 0 01-1.99-2 1.99 1.99 0 113.97 0zM219.26 174.33a2 2 0 01-1.98 2 2 2 0 01-1.99-2 2 2 0 011.99-2 2 2 0 011.98 2zM219.26 150.05a2 2 0 01-1.98 2 2 2 0 01-1.99-2 2 2 0 011.99-2 2 2 0 011.98 2zM219.26 125.07a2 2 0 01-1.98 2 2 2 0 01-1.99-2 2 2 0 011.99-2 2 2 0 011.98 2zM246.18 174.33a2 2 0 01-1.99 2 2 2 0 01-1.98-2 2 2 0 011.98-2 2 2 0 011.99 2zM246.18 150.05a2 2 0 01-1.99 2 2 2 0 01-1.98-2 2 2 0 011.98-2 2 2 0 011.99 2zM246.18 125.07a2 2 0 01-1.99 2 2 2 0 01-1.98-2 2 2 0 011.98-2 2 2 0 011.99 2zM273.09 174.33a2 2 0 01-1.99 2 2 2 0 01-1.98-2 2 2 0 011.98-2 2 2 0 011.99 2zM273.09 150.06a2 2 0 01-1.99 2 2 2 0 01-1.98-2 2 2 0 011.98-2 2 2 0 011.99 2zM273.09 125.07a2 2 0 01-1.99 2 2 2 0 01-1.98-2 2 2 0 011.98-2 2 2 0 011.99 2zM300 174.33a2 2 0 01-1.99 2 2 2 0 01-1.98-2 2 2 0 011.99-2 2 2 0 011.98 2zM300 150.05a2 2 0 01-1.99 2 2 2 0 01-1.98-2 2 2 0 011.99-2 2 2 0 011.98 2zM300 125.07a2 2 0 01-1.99 2 2 2 0 01-1.98-2 2 2 0 011.99-2 2 2 0 011.98 2zM3.97 199.06a2 2 0 01-1.98 2 2 2 0 01-1.99-2 2 2 0 011.99-2 2 2 0 011.98 2zM84.7 199.06a2 2 0 01-1.98 2 2 2 0 01-1.99-2 2 2 0 012-2 2 2 0 011.98 2zM111.62 199.06a2 2 0 01-1.99 2 2 2 0 01-1.98-2 2 2 0 011.98-2 2 2 0 011.99 2zM138.53 199.06a2 2 0 01-1.99 2 2 2 0 01-1.98-2 2 2 0 011.98-2 2 2 0 012 2zM165.44 199.06a2 2 0 01-1.98 2 2 2 0 01-1.99-2 2 2 0 011.99-2 2 2 0 011.98 2zM192.35 199.06a2 2 0 01-1.98 2 2 2 0 01-1.99-2 2 2 0 011.99-2 2 2 0 011.98 2zM219.26 199.06a2 2 0 01-1.98 2 2 2 0 01-1.99-2 2 2 0 011.99-2 2 2 0 011.98 2zM246.18 199.06a2 2 0 01-1.99 2 2 2 0 01-1.98-2 2 2 0 011.98-2 2 2 0 011.99 2zM273.09 199.07a2 2 0 01-1.99 2 2 2 0 01-1.98-2 2 2 0 011.98-2 2 2 0 011.99 2zM300 199.06a2 2 0 01-1.99 2 2 2 0 01-1.98-2 2 2 0 011.99-2 2 2 0 011.98 2zM3.97 223.8a2 2 0 01-1.98 2 2 2 0 01-1.99-2 2 2 0 011.99-2 2 2 0 011.98 2zM82.72 225.8a2 2 0 01-1.99-2 2 2 0 012-2 2 2 0 011.98 2 2 2 0 01-1.99 2zM111.62 223.8a2 2 0 01-1.99 2 2 2 0 01-1.98-2 2 2 0 011.98-2 2 2 0 011.99 2zM138.53 223.8a2 2 0 01-1.99 2 2 2 0 01-1.98-2 2 2 0 011.98-2 2 2 0 012 2zM165.44 223.8a2 2 0 01-1.98 2 2 2 0 01-1.99-2 2 2 0 011.99-2 2 2 0 011.98 2zM192.35 223.8a2 2 0 01-1.98 2 2 2 0 01-1.99-2 2 2 0 011.99-2 2 2 0 011.98 2zM219.26 223.8a2 2 0 01-1.98 2 2 2 0 01-1.99-2 2 2 0 011.99-2 2 2 0 011.98 2zM246.18 223.8a2 2 0 01-1.99 2 2 2 0 01-1.98-2 2 2 0 011.98-2 2 2 0 011.99 2zM273.09 223.8a2 2 0 01-1.99 2 2 2 0 01-1.98-2 2 2 0 011.98-2 2 2 0 011.99 2zM300 223.8a2 2 0 01-1.99 2 2 2 0 01-1.98-2 2 2 0 011.99-2 2 2 0 011.98 2zM3.97 248.53a2 2 0 01-1.98 2 2 2 0 01-1.99-2 2 2 0 011.99-2 2 2 0 011.98 2zM30.88 248.53a2 2 0 01-1.98 2 2 2 0 01-1.99-2 2 2 0 011.99-2 2 2 0 011.98 2zM57.8 248.53a2 2 0 01-1.99 2 2 2 0 01-1.99-2 2 2 0 011.99-2 2 2 0 011.98 2zM57.8 223.89a2 2 0 01-1.99 2 2 2 0 01-1.99-2 2 2 0 011.99-2 2 2 0 011.98 2zM31.14 223.89a2 2 0 01-1.99 2 2 2 0 01-1.98-2 2 2 0 011.98-2 2 2 0 011.99 2zM57.8 198.9a2 2 0 01-1.99 2 2 2 0 01-1.99-2 2 2 0 011.99-2 2 2 0 011.98 2zM31.14 198.9a2 2 0 01-1.99 2 2 2 0 01-1.98-2 2 2 0 011.98-2 2 2 0 011.99 2zM57.8 173.91a2 2 0 01-1.99 2 2 2 0 01-1.99-2 2 2 0 011.99-2 2 2 0 011.98 2zM84.7 248.53a2 2 0 01-1.98 2 2 2 0 01-1.99-2 2 2 0 011.99-2 2 2 0 011.99 2zM111.62 248.53a2 2 0 01-1.99 2 2 2 0 01-1.98-2 2 2 0 011.98-2 2 2 0 011.99 2zM138.53 248.53a2 2 0 01-1.99 2 2 2 0 01-1.98-2 2 2 0 011.98-2 2 2 0 011.99 2zM165.44 248.53a2 2 0 01-1.98 2 2 2 0 01-2-2 2 2 0 012-2 2 2 0 011.98 2zM192.35 248.53a2 2 0 01-1.98 2 2 2 0 01-1.99-2 2 2 0 011.99-2 2 2 0 011.98 2zM219.26 248.53a2 2 0 01-1.98 2 2 2 0 01-1.99-2 2 2 0 011.99-2 2 2 0 011.98 2zM246.18 248.53a2 2 0 01-1.99 2 2 2 0 01-1.99-2 2 2 0 011.99-2 2 2 0 011.99 2zM273.09 248.53a2 2 0 01-1.99 2 2 2 0 01-1.98-2 2 2 0 011.98-2 2 2 0 011.99 2zM300 248.53a2 2 0 01-1.99 2 2 2 0 01-1.98-2 2 2 0 011.98-2 2 2 0 011.99 2zM3.97 273.27a2 2 0 01-1.98 2 2 2 0 01-1.99-2 2 2 0 011.99-2 2 2 0 011.98 2zM30.88 273.27a2 2 0 01-1.98 2 2 2 0 01-1.99-2 2 2 0 011.99-2 2 2 0 011.98 2zM57.8 273.27a2 2 0 01-1.99 2 2 2 0 01-1.99-2 2 2 0 011.99-2 2 2 0 011.99 2zM84.7 273.27a2 2 0 01-1.98 2 2 2 0 01-1.99-2 1.99 1.99 0 113.97 0zM111.62 273.27a2 2 0 01-1.99 2 2 2 0 01-1.98-2 2 2 0 011.98-2 2 2 0 011.99 2zM138.53 273.27a2 2 0 01-1.99 2 2 2 0 01-1.98-2 2 2 0 011.98-2 2 2 0 012 2zM165.44 273.27a2 2 0 01-1.98 2 2 2 0 01-1.99-2 2 2 0 011.99-2 2 2 0 011.98 2zM192.35 273.27a2 2 0 01-1.98 2 2 2 0 01-1.99-2 1.99 1.99 0 113.97 0zM219.26 273.27a2 2 0 01-1.98 2 2 2 0 01-1.99-2 2 2 0 011.99-2 2 2 0 011.98 2zM246.18 273.27a2 2 0 01-1.99 2 2 2 0 01-1.98-2 2 2 0 011.98-2 2 2 0 011.99 2zM273.09 273.27a2 2 0 01-1.99 2 2 2 0 01-1.98-2 2 2 0 011.98-2 2 2 0 011.99 2zM300 273.27a2 2 0 01-1.99 2 2 2 0 01-1.98-2 2 2 0 011.99-2 2 2 0 011.98 2zM3.97 298A2 2 0 012 300 2 2 0 010 298 2 2 0 012 296a2 2 0 011.98 2zM30.88 298a2 2 0 01-1.98 2 2 2 0 01-1.99-2 2 2 0 011.99-2 2 2 0 011.98 2zM57.8 298a2 2 0 01-1.99 2 2 2 0 01-1.99-2 2 2 0 011.99-2 2 2 0 011.99 2zM84.7 298a2 2 0 01-1.98 2 2 2 0 01-1.99-2 2 2 0 012-2 2 2 0 011.98 2zM111.62 298a2 2 0 01-1.99 2 2 2 0 01-1.98-2 2 2 0 011.98-2 2 2 0 011.99 2zM138.53 298a2 2 0 01-1.99 2 2 2 0 01-1.98-2 2 2 0 011.98-2 2 2 0 012 2zM165.44 298a2 2 0 01-1.98 2 2 2 0 01-1.99-2 2 2 0 011.99-2 2 2 0 011.98 2zM192.35 298a2 2 0 01-1.98 2 2 2 0 01-1.99-2 2 2 0 011.99-2 2 2 0 011.98 2zM219.26 298a2 2 0 01-1.98 2 2 2 0 01-1.99-2 2 2 0 011.99-2 2 2 0 011.98 2zM246.18 298a2 2 0 01-1.99 2 2 2 0 01-1.98-2 2 2 0 011.98-2 2 2 0 011.99 2zM273.09 298a2 2 0 01-1.99 2 2 2 0 01-1.98-2 2 2 0 011.98-2 2 2 0 011.99 2zM300 298a2 2 0 01-1.99 2 2 2 0 01-1.98-2 2 2 0 011.99-2 2 2 0 011.98 2zM3.97 2.17a2 2 0 01-1.98 2 2 2 0 01-1.99-2A2 2 0 012 .17a2 2 0 011.98 2zM84.7 2.17a2 2 0 01-1.98 2 2 2 0 01-1.99-2 2 2 0 012-2 2 2 0 011.98 2zM111.62 2.17a2 2 0 01-1.99 2 2 2 0 01-1.98-2 2 2 0 011.98-2 2 2 0 011.99 2zM138.53 2.17a2 2 0 01-1.99 2 2 2 0 01-1.98-2 2 2 0 011.98-2 2 2 0 012 2zM165.44 2.17a2 2 0 01-1.98 2 2 2 0 01-1.99-2 2 2 0 011.99-2 2 2 0 011.98 2zM192.35 2.17a2 2 0 01-1.98 2 2 2 0 01-1.99-2 2 2 0 011.99-2 2 2 0 011.98 2zM219.26 2.17a2 2 0 01-1.98 2 2 2 0 01-1.99-2 2 2 0 011.99-2 2 2 0 011.98 2zM246.18 2.17a2 2 0 01-1.99 2 2 2 0 01-1.98-2 2 2 0 011.98-2 2 2 0 011.99 2zM273.09 2.17a2 2 0 01-1.99 2 2 2 0 01-1.98-2 2 2 0 011.98-2 2 2 0 011.99 2zM300 2.17a2 2 0 01-1.99 2 2 2 0 01-1.98-2 2 2 0 011.99-2 2 2 0 011.98 2zM3.97 26.9a2 2 0 01-1.98 2 2 2 0 01-1.99-2 2 2 0 011.99-2 2 2 0 011.98 2zM82.72 28.9a2 2 0 01-1.99-2 2 2 0 012-2 2 2 0 011.98 2 2 2 0 01-1.99 2zM111.62 26.9a2 2 0 01-1.99 2 2 2 0 01-1.98-2 2 2 0 011.98-2 2 2 0 011.99 2zM138.53 26.9a2 2 0 01-1.99 2 2 2 0 01-1.98-2 2 2 0 011.98-2 2 2 0 012 2zM165.44 26.9a2 2 0 01-1.98 2 2 2 0 01-1.99-2 2 2 0 011.99-2 2 2 0 011.98 2zM192.35 26.9a2 2 0 01-1.98 2 2 2 0 01-1.99-2 2 2 0 011.99-2 2 2 0 011.98 2zM219.26 26.9a2 2 0 01-1.98 2 2 2 0 01-1.99-2 2 2 0 011.99-2 2 2 0 011.98 2zM246.18 26.9a2 2 0 01-1.99 2 2 2 0 01-1.98-2 2 2 0 011.98-2 2 2 0 011.99 2zM273.09 26.9a2 2 0 01-1.99 2 2 2 0 01-1.98-2 2 2 0 011.98-2 2 2 0 011.99 2zM300 26.9a2 2 0 01-1.99 2 2 2 0 01-1.98-2 2 2 0 011.99-2 2 2 0 011.98 2zM3.97 51.63a2 2 0 01-1.98 2 2 2 0 01-1.99-2 2 2 0 011.99-2 2 2 0 011.98 2zM30.88 51.63a2 2 0 01-1.98 2 2 2 0 01-1.99-2 2 2 0 011.99-2 2 2 0 011.98 2zM57.8 51.63a2 2 0 01-1.99 2 2 2 0 01-1.99-2 2 2 0 011.99-2 2 2 0 011.98 2zM57.8 26.99a2 2 0 01-1.99 2 2 2 0 01-1.99-2 2 2 0 011.99-2 2 2 0 011.98 2zM31.14 26.99a2 2 0 01-1.99 2 2 2 0 01-1.98-2 2 2 0 011.98-2 2 2 0 011.99 2zM57.8 2a2 2 0 01-1.99 2 2 2 0 01-1.99-2 2 2 0 011.99-2 2 2 0 011.98 2zM31.14 2a2 2 0 01-1.99 2 2 2 0 01-1.98-2 2 2 0 011.98-2 2 2 0 011.99 2zM84.7 51.63a2 2 0 01-1.98 2 2 2 0 01-1.99-2 2 2 0 011.99-2 2 2 0 011.99 2zM111.62 51.63a2 2 0 01-1.99 2 2 2 0 01-1.98-2 2 2 0 011.98-2 2 2 0 011.99 2zM138.53 51.63a2 2 0 01-1.99 2 2 2 0 01-1.98-2 2 2 0 011.98-2 2 2 0 011.99 2zM165.44 51.63a2 2 0 01-1.98 2 2 2 0 01-2-2 2 2 0 012-2 2 2 0 011.98 2zM192.35 51.63a2 2 0 01-1.98 2 2 2 0 01-1.99-2 2 2 0 011.99-2 2 2 0 011.98 2zM219.26 51.63a2 2 0 01-1.98 2 2 2 0 01-1.99-2 2 2 0 011.99-2 2 2 0 011.98 2zM246.18 51.63a2 2 0 01-1.99 2 2 2 0 01-1.99-2 2 2 0 011.99-2 2 2 0 011.99 2zM273.09 51.63a2 2 0 01-1.99 2 2 2 0 01-1.98-2 2 2 0 011.98-2 2 2 0 011.99 2zM300 51.63a2 2 0 01-1.99 2 2 2 0 01-1.98-2 2 2 0 011.98-2 2 2 0 011.99 2zM3.97 76.37a2 2 0 01-1.98 2 2 2 0 01-1.99-2 2 2 0 011.99-2 2 2 0 011.98 2zM30.88 76.37a2 2 0 01-1.98 2 2 2 0 01-1.99-2 2 2 0 011.99-2 2 2 0 011.98 2zM57.8 76.37a2 2 0 01-1.99 2 2 2 0 01-1.99-2 2 2 0 011.99-2 2 2 0 011.99 2zM84.7 76.37a2 2 0 01-1.98 2 2 2 0 01-1.99-2 2 2 0 012-2 2 2 0 011.98 2zM111.62 76.37a2 2 0 01-1.99 2 2 2 0 01-1.98-2 2 2 0 011.98-2 2 2 0 011.99 2zM138.53 76.37a2 2 0 01-1.99 2 2 2 0 01-1.98-2 2 2 0 011.98-2 2 2 0 012 2zM165.44 76.37a2 2 0 01-1.98 2 2 2 0 01-1.99-2 2 2 0 011.99-2 2 2 0 011.98 2zM192.35 76.37a2 2 0 01-1.98 2 2 2 0 01-1.99-2 2 2 0 011.99-2 2 2 0 011.98 2zM219.26 76.37a2 2 0 01-1.98 2 2 2 0 01-1.99-2 2 2 0 011.99-2 2 2 0 011.98 2zM246.18 76.37a2 2 0 01-1.99 2 2 2 0 01-1.98-2 2 2 0 011.98-2 2 2 0 011.99 2zM273.09 76.37a2 2 0 01-1.99 2 2 2 0 01-1.98-2 2 2 0 011.98-2 2 2 0 011.99 2zM300 76.37a2 2 0 01-1.99 2 2 2 0 01-1.98-2 2 2 0 011.99-2 2 2 0 011.98 2zM3.97 101.1a2 2 0 01-1.98 2 2 2 0 01-1.99-2 2 2 0 011.99-2 2 2 0 011.98 2zM30.88 101.1a2 2 0 01-1.98 2 2 2 0 01-1.99-2 2 2 0 011.99-2 2 2 0 011.98 2zM57.8 101.1a2 2 0 01-1.99 2 2 2 0 01-1.99-2 2 2 0 011.99-2 2 2 0 011.99 2zM84.7 101.1a2 2 0 01-1.98 2 2 2 0 01-1.99-2 2 2 0 012-2 2 2 0 011.98 2zM111.62 101.1a2 2 0 01-1.99 2 2 2 0 01-1.98-2 2 2 0 011.98-2 2 2 0 011.99 2zM138.53 101.1a2 2 0 01-1.99 2 2 2 0 01-1.98-2 2 2 0 011.98-2 2 2 0 012 2zM165.44 101.1a2 2 0 01-1.98 2 2 2 0 01-1.99-2 2 2 0 011.99-2 2 2 0 011.98 2zM192.35 101.1a2 2 0 01-1.98 2 2 2 0 01-1.99-2 2 2 0 011.99-2 2 2 0 011.98 2zM219.26 101.1a2 2 0 01-1.98 2 2 2 0 01-1.99-2 2 2 0 011.99-2 2 2 0 011.98 2zM246.18 101.1a2 2 0 01-1.99 2 2 2 0 01-1.98-2 2 2 0 011.98-2 2 2 0 011.99 2zM273.09 101.1a2 2 0 01-1.99 2 2 2 0 01-1.98-2 2 2 0 011.98-2 2 2 0 011.99 2zM300 101.1a2 2 0 01-1.99 2 2 2 0 01-1.98-2 2 2 0 011.99-2 2 2 0 011.98 2z"/></g></svg>