<?xml version="1.0" encoding="UTF-8"?>
<svg width="74px" height="74px" viewBox="0 0 74 74" version="1.1" xmlns="http://www.w3.org/2000/svg" xmlns:xlink="http://www.w3.org/1999/xlink">
    <!-- Generator: Sketch 51.2 (57519) - http://www.bohemiancoding.com/sketch -->
    <title>2. Illustration / 4. Service Icons / Piggy bank</title>
    <desc>Created with Sketch.</desc>
    <defs></defs>
    <g id="2.-Illustration-/-4.-Service-Icons-/-Piggy-bank" stroke="none" stroke-width="1" fill="none" fill-rule="evenodd">
        <g id="piggybank" transform="translate(4.000000, 7.000000)">
            <path d="M61.58,29.098 L61.341,29.098 C59.921,19.465 52.306,11.656 42.141,8.733 L41.733,8.619 C41.534,4.554 38.245,1.267 34.205,1.267 C30.329,1.267 27.138,4.22 26.711,8.052 L26.658,8.038 L25.662,8.168 C23.294,8.774 20.56,9.764 18.495,10.853 C18.349,10.93 18.1,11.145 18.1,11.145 C15.478,8.775 12.184,7.599 8.893,7.637 C8.498,10.737 9.153,14.037 10.804,16.787 L10.694,17.122 C8.981,19.056 7.592,21.605 6.597,23.746 L3.782,23.746 C2.627,23.746 1.267,24.305 1.267,25.482 L1.267,37.256 C1.267,40.511 4.627,39.801 10.63,47.293 L10.6,47.293 C10.866,47.293 11.127,47.627 11.41,47.921 C15.052,51.927 16.4,52.845 16.4,56.859 C16.4,58.036 17.339,59.067 18.495,59.067 L24.8,59.067 C25.378,59.067 25.903,58.624 26.285,58.235 L26.345,58.071 C27.178,56.925 28.133,56.179 30.349,56.448 L30.306,56.419 C31.26,56.504 32.176,56.534 33.156,56.534 C34.115,56.534 34.895,56.48 35.946,56.4 L35.946,56.398 C38.047,56.128 39.43,56.926 40.264,57.997 L40.218,57.997 C40.6,59.067 41.019,59.067 41.598,59.067 L47.902,59.067 C49.058,59.067 50.004,57.901 50.004,56.724 C50.004,52.71 51.359,51.758 55.002,47.75 L55.011,47.91 C58.368,44.417 60.631,40.871 61.341,35.52 L61.581,35.52 C63.322,35.52 64.733,34.082 64.733,32.309 C64.733,30.535 63.322,29.098 61.581,29.098" id="Shape" fill="#FFFFFF" fill-rule="nonzero"></path>
            <g id="Group" transform="translate(9.000000, 9.000000)" fill="#E5EFF4" fill-rule="nonzero">
                <path d="M52.297,19.81 L52.049,19.81 C50.901,12.262 45.815,5.848 38.624,2.013 C42.344,6.156 44.546,11.285 44.546,16.839 C44.546,30.597 31.05,41.749 14.404,41.749 C9.581,41.749 5.027,40.808 0.985,39.144 C4.377,42.718 5.652,43.735 5.652,47.567 C5.652,48.745 6.62,49.775 7.814,49.775 L14.324,49.775 C14.92,49.775 15.463,49.332 15.857,48.944 L15.918,48.779 C16.778,47.634 17.765,46.888 20.052,47.156 L20.008,47.128 C20.9865469,47.2086883 21.9681434,47.2467243 22.95,47.242 C23.94,47.242 24.746,47.189 25.83,47.108 L25.83,47.106 C28,46.838 29.428,47.635 30.289,48.706 L30.242,48.706 C30.636,49.776 31.069,49.776 31.665,49.776 L38.175,49.776 C39.369,49.776 40.345,48.61 40.345,47.433 C40.345,43.419 41.744,42.467 45.505,38.46 L45.514,38.62 C48.98,35.127 51.316,31.582 52.049,26.23 L52.297,26.23 C54.095,26.23 55.552,24.793 55.552,23.02 C55.552,21.246 54.095,19.81 52.297,19.81 Z M19.326,4.945 C19.326,4.945 21.72,4.649 24.985,4.429 C28.248,4.209 30.529,5.06 30.529,5.06 L32.504,1.795 C32.504,1.795 29.819,0.262 24.984,0.262 C20.151,0.262 17.144,2.013 17.144,2.013 L19.326,4.945 Z" id="Shape"></path>
            </g>
            <path d="M11.215,25.776 C10.311,25.776 9.577,26.498 9.577,27.386 C9.577,28.276 10.311,28.997 11.215,28.997 C12.119,28.997 12.853,28.276 12.853,27.387 C12.853,26.497 12.119,25.777 11.215,25.777 L11.215,25.776 Z" id="Shape" fill="#2F4662" fill-rule="nonzero"></path>
            <path d="M21.426,16.906 C20.7320699,14.8300756 19.5543257,12.9489756 17.99,11.418 C15.177,8.652 11.477,7.296 7.79,7.338 C7.379,10.448 8.06,13.758 9.777,16.518 L9.661,16.649 C7.881,18.589 6.438,20.757 5.405,23.092 L2.48,23.092 C1.279,23.092 0.296,24.059 0.296,25.24 L0.296,37.05 C0.296,40.315 3.3,39.198 9.536,46.575 C9.812,46.881 10.096,47.182 10.39,47.477 C14.175,51.496 15.582,52.35 15.582,56.377 C15.582,57.557 16.565,58.524 17.766,58.524 L24.317,58.524 C24.917,58.524 25.464,58.282 25.86,57.893 L25.922,57.828 C26.788,56.679 27.781,55.983 30.084,56.252 L30.039,56.249 C32.024057,56.4168145 34.0196645,56.418487 36.005,56.254 L36.005,56.252 C38.308,55.982 39.299,56.679 40.165,57.828 L40.228,57.893 C40.625,58.283 41.17,58.524 41.771,58.524 L48.322,58.524 C49.523,58.524 50.506,57.558 50.506,56.377 C50.506,52.35 51.912,51.496 55.698,47.477 L55.707,47.484 C59.195,43.98 61.547,39.653 62.285,34.902 L62.533,34.903 C64.343,34.903 65.809,33.46 65.809,31.682 C65.809,29.902 64.342,28.461 62.533,28.461 L62.285,28.46 C60.808,18.967 52.896,11.168 42.335,8.236" id="Shape" stroke="#2F4662" stroke-width="2"></path>
            <path d="M17.315,10.796 C17.465,10.716 17.615,10.639 17.766,10.562 C19.912,9.47 22.753,8.473 25.213,7.866 L26.248,7.728" id="Shape" stroke="#2F4662" stroke-width="1.5"></path>
            <path d="M22.134,54.091 C25.6560248,55.2585209 29.3435159,55.849465 33.054,55.841 C36.91,55.841 40.594,55.22 43.972,54.091" id="Shape" stroke="#2F4662" stroke-width="1.5" stroke-linejoin="round"></path>
            <path d="M39.634,14.06 C41.1022307,12.6259636 41.9300071,10.6603552 41.93,8.608 C41.93,4.35 38.42,0.898 34.09,0.898 C29.759,0.898 26.248,4.35 26.248,8.608 C26.248,10.679 27.079,12.561 28.43,13.946" id="Shape" stroke="#735996" stroke-width="1.5" stroke-linecap="round" stroke-linejoin="round"></path>
            <path d="M43.862,15.576 C40.803,14.206 37.309,13.429 33.598,13.429 C30.278,13.429 27.133,14.05 24.317,15.163" id="Shape" stroke="#2F4662" stroke-width="1.5" stroke-linejoin="round"></path>
        </g>
    </g>
</svg>