<?xml version="1.0" encoding="UTF-8"?>
<svg width="74px" height="74px" viewBox="0 0 74 74" version="1.1" xmlns="http://www.w3.org/2000/svg" xmlns:xlink="http://www.w3.org/1999/xlink">
    <!-- Generator: Sketch 51.2 (57519) - http://www.bohemiancoding.com/sketch -->
    <title>2. Illustration / 4. Service Icons / Spaceship</title>
    <desc>Created with Sketch.</desc>
    <defs></defs>
    <g id="2.-Illustration-/-4.-Service-Icons-/-Spaceship" stroke="none" stroke-width="1" fill="none" fill-rule="evenodd">
        <g id="spaceship" transform="translate(4.000000, 4.000000)">
            <path d="M64.711,1.153 C60.945,-2.612 48.876,3.124 35.884,14.28 L35.486,13.882 L18.216,11.048 L10.22,19.044 L23.642,32.466 C22.862,34.403 22.372,36.155 21.787,38.09 L27.287,43.59 C29.187,43.04 30.965,42.527 32.913,41.737 L45.954,54.778 L53.949,46.783 L51.512,30.067 C62.715,17.04 68.485,4.927 64.71,1.153" id="Shape" fill="#FFFFFF" fill-rule="nonzero"></path>
            <path d="M36.523,44.817 C36.523,44.817 47.449,35.4 55.58,25.865 C63.713,16.331 67.601,7.295 65.932,3.441 C64.265,-0.415 65.066,2.026 65.066,2.026 C65.066,2.026 58.194,11.874 44.949,24.434 C31.705,36.993 30.324,38.75 30.324,38.75 L36.523,44.817 Z M35.89,14.464 C35.89,14.464 29.757,20.612 27.405,23.04 C25.054,25.469 20.803,29.43 20.803,29.43 L16.735,25.448 L28.065,13.206 L35.89,14.464 Z" id="Shape" fill="#E5EFF4" fill-rule="nonzero"></path>
            <polygon id="Shape" fill="#CCE0EA" fill-rule="nonzero" points="37.627 45.897 51.848 30.781 52.984 37.77 40.986 49.186"></polygon>
            <g id="Group">
                <path d="M37.552,44.303 C40.1278776,42.1348789 42.6206663,39.8699203 45.025,37.513 C60.572,22.295 69.545,6.406 65.067,2.024 C60.59,-2.357 44.36,6.425 28.812,21.643 C26.4077246,23.9927817 24.093396,26.4328673 21.874,28.958" id="Shape" stroke="#2F4564" stroke-width="2" stroke-linejoin="round"></path>
                <polyline id="Shape" stroke="#2F4564" stroke-width="2" stroke-linejoin="round" points="35.89 14.464 18.649 11.694 10.665 19.507 46.342 54.428 54.324 46.614 51.863 30.098"></polyline>
                <path d="M56.736,13.707 C57.2126668,13.2443011 57.4816613,12.6083053 57.4816613,11.944 C57.4816613,11.2796947 57.2126668,10.6436989 56.736,10.181 C55.7328187,9.20615596 54.1361813,9.20615596 53.133,10.181 C52.6558195,10.6434201 52.386466,11.2795201 52.386466,11.944 C52.386466,12.6084799 52.6558195,13.2445799 53.133,13.707 C54.1366074,14.6807937 55.7323926,14.6807937 56.736,13.707" id="Shape" fill="#2F4564" fill-rule="nonzero"></path>
                <path d="M6.397,48.1 C9.222,48.436 12.17,47.542 14.337,45.42 L18.195,41.645 M0.78,45.42 C1.68975171,46.3113551 2.76810964,47.0123558 3.952,47.482 M21.293,50.706 L24.398,47.666 M23.482,65.934 C21.4472335,66.051077 19.457023,65.307107 17.998,63.884 C16.6515964,62.5784043 15.891668,60.7829687 15.891668,58.9075 C15.891668,57.0320313 16.6515964,55.2365957 17.998,53.931 L19.041,52.911" id="Shape" stroke="#735996" stroke-width="1.5"></path>
                <path d="M24.299,32.045 C23.367,34.179 22.857,36.035 22.214,38.12 L27.704,43.494 C29.796,42.904 31.727,42.371 33.916,41.452" id="Shape" stroke="#2F4564" stroke-width="1.5"></path>
                <path d="M21.107,44.817 L10.03,55.661" id="Shape" stroke="#735996" stroke-width="1.5"></path>
            </g>
        </g>
    </g>
</svg>