<?xml version="1.0" encoding="UTF-8"?>
<svg width="74px" height="74px" viewBox="0 0 74 74" version="1.1" xmlns="http://www.w3.org/2000/svg" xmlns:xlink="http://www.w3.org/1999/xlink">
    <!-- Generator: Sketch 51.2 (57519) - http://www.bohemiancoding.com/sketch -->
    <title>2. Illustration / 4. Service Icons / Hand heart</title>
    <desc>Created with Sketch.</desc>
    <defs></defs>
    <g id="2.-Illustration-/-4.-Service-Icons-/-Hand-heart" stroke="none" stroke-width="1" fill="none" fill-rule="evenodd">
        <g id="two-hands-forming-a-heart" transform="translate(5.000000, 9.000000)">
            <path d="M5.102,30.429 C-1.701,23.626 -1.701,12.599 5.102,5.797 C11.904,-1.005 22.931,-1.005 29.733,5.797 L31.801,7.863 L34.422,5.242 C41.29,-1.626 52.465,-1.559 59.249,5.44 C65.943,12.345 65.411,23.516 58.611,30.316 L54.317,34.61 L36.107,52.82 C33.738415,55.1907395 29.8970003,55.19432 27.524,52.828 C20.0471804,45.3641562 12.5731799,37.897489 5.102,30.428" id="Shape" fill="#FFFFFF" fill-rule="nonzero"></path>
            <path d="M58.671,5.398 C54.785,1.24 49.433,-0.496 44.308,0.154 C45.068,0.734 45.802,1.368 46.481,2.094 C52.284,8.302 52.547,17.892 47.933,24.817 L37.49,14.232 L34.43,19.6 L45.03,30.594 L42.76,32.946 L25.17,51.19 C26.43,52.496 26.495,52.559 27.533,53.634 C29.863,56.044 33.631,56.039 35.958,53.625 L53.83,35.09 L58.046,30.72 C64.72,23.797 65.241,12.428 58.671,5.399" id="Shape" fill="#E5EFF4" fill-rule="nonzero"></path>
            <path d="M38.296,23.61 L34.43,19.6 L29.731,23.285 L23.262,23.61 L19.168,22.009 L25.169,27.72 C25.169,27.72 29.667,31.684 33.721,27.72 C37.776,23.757 38.296,23.61 38.296,23.61" id="Shape" fill="#CCE0EA" fill-rule="nonzero"></path>
            <g id="Group">
                <path d="M51.598,37.405 L33.93,19.083" id="Shape" stroke="#735996" stroke-width="1.5"></path>
                <path d="M31.73,7.866 L29.7,5.76 C23.025,-1.162 12.2,-1.162 5.525,5.76 C-1.151,12.684 -1.151,23.91 5.525,30.833" id="Shape" stroke="#2F4564" stroke-width="2"></path>
                <path d="M34.304,5.196 L19.736,20.303 L21.906,22.553 C23.0356321,23.7428545 24.6043226,24.4166107 26.245,24.4166107 C27.8856774,24.4166107 29.4543679,23.7428545 30.584,22.553 L39.728,13.072" id="Shape" stroke="#2F4564" stroke-width="2"></path>
                <path d="M37.882,51.054 L33.721,46.738 M41.88,46.69 L37.823,42.483 M46.356,42.047 L42.3,37.84" id="Shape" stroke="#2F4564" stroke-width="1.5" stroke-linecap="round"></path>
                <path d="M34.304,5.196 C41.044,-1.794 52.013,-1.726 58.671,5.398 C65.241,12.426 64.72,23.797 58.045,30.718 L53.83,35.09 L35.958,53.625 C33.631,56.038 29.862,56.044 27.532,53.633 C20.117,45.962 5.525,30.833 5.525,30.833" id="Shape" stroke="#2F4564" stroke-width="2"></path>
            </g>
        </g>
    </g>
</svg>